<?xml version="1.0" encoding="utf-8" ?>
<svg baseProfile="full" height="10cm" version="1.1" width="10000cm" xmlns="http://www.w3.org/2000/svg" xmlns:ev="http://www.w3.org/2001/xml-events" xmlns:xlink="http://www.w3.org/1999/xlink"><defs /><g fill="red" id="shapes"><rect fill="blue" height="1mm" stroke="red" stroke-width="1" width="9mm" x="0mm" y="10mm" /><rect fill="blue" height="1mm" stroke="red" stroke-width="1" width="4mm" x="9mm" y="10mm" /><rect fill="blue" height="1mm" stroke="red" stroke-width="1" width="5mm" x="13mm" y="10mm" /><rect fill="blue" height="1mm" stroke="red" stroke-width="1" width="1mm" x="18mm" y="10mm" /><rect fill="green" height="1mm" stroke="red" stroke-width="1" width="172mm" x="19mm" y="10mm" /><rect fill="blue" height="1mm" stroke="red" stroke-width="1" width="6mm" x="300mm" y="10mm" /><rect fill="blue" height="1mm" stroke="red" stroke-width="1" width="3mm" x="306mm" y="10mm" /><rect fill="blue" height="1mm" stroke="red" stroke-width="1" width="3mm" x="309mm" y="10mm" /><rect fill="blue" height="1mm" stroke="red" stroke-width="1" width="1mm" x="312mm" y="10mm" /><rect fill="green" height="1mm" stroke="red" stroke-width="1" width="30mm" x="313mm" y="10mm" /><rect fill="blue" height="1mm" stroke="red" stroke-width="1" width="5mm" x="555mm" y="10mm" /><rect fill="blue" height="1mm" stroke="red" stroke-width="1" width="2mm" x="560mm" y="10mm" /><rect fill="blue" height="1mm" stroke="red" stroke-width="1" width="3mm" x="562mm" y="10mm" /><rect fill="blue" height="1mm" stroke="red" stroke-width="1" width="1mm" x="565mm" y="10mm" /><rect fill="green" height="1mm" stroke="red" stroke-width="1" width="26mm" x="566mm" y="10mm" /><rect fill="blue" height="1mm" stroke="red" stroke-width="1" width="5mm" x="746mm" y="10mm" /><rect fill="blue" height="1mm" stroke="red" stroke-width="1" width="2mm" x="751mm" y="10mm" /><rect fill="blue" height="1mm" stroke="red" stroke-width="1" width="3mm" x="753mm" y="10mm" /><rect fill="blue" height="1mm" stroke="red" stroke-width="1" width="1mm" x="756mm" y="10mm" /><rect fill="green" height="1mm" stroke="red" stroke-width="1" width="34mm" x="757mm" y="10mm" /><rect fill="blue" height="1mm" stroke="red" stroke-width="1" width="5mm" x="934mm" y="10mm" /><rect fill="blue" height="1mm" stroke="red" stroke-width="1" width="3mm" x="939mm" y="10mm" /><rect fill="blue" height="1mm" stroke="red" stroke-width="1" width="2mm" x="942mm" y="10mm" /><rect fill="blue" height="1mm" stroke="red" stroke-width="1" width="1mm" x="944mm" y="10mm" /><rect fill="green" height="1mm" stroke="red" stroke-width="1" width="62mm" x="945mm" y="10mm" /><rect fill="blue" height="1mm" stroke="red" stroke-width="1" width="4mm" x="1123mm" y="10mm" /><rect fill="blue" height="1mm" stroke="red" stroke-width="1" width="2mm" x="1127mm" y="10mm" /><rect fill="blue" height="1mm" stroke="red" stroke-width="1" width="3mm" x="1129mm" y="10mm" /><rect fill="blue" height="1mm" stroke="red" stroke-width="1" width="1mm" x="1132mm" y="10mm" /><rect fill="green" height="1mm" stroke="red" stroke-width="1" width="62mm" x="1133mm" y="10mm" /><rect fill="blue" height="1mm" stroke="red" stroke-width="1" width="4mm" x="1303mm" y="10mm" /><rect fill="blue" height="1mm" stroke="red" stroke-width="1" width="2mm" x="1307mm" y="10mm" /><rect fill="blue" height="1mm" stroke="red" stroke-width="1" width="3mm" x="1309mm" y="10mm" /><rect fill="blue" height="1mm" stroke="red" stroke-width="1" width="1mm" x="1312mm" y="10mm" /><rect fill="green" height="1mm" stroke="red" stroke-width="1" width="62mm" x="1313mm" y="10mm" /><rect fill="blue" height="1mm" stroke="red" stroke-width="1" width="4mm" x="1483mm" y="10mm" /><rect fill="blue" height="1mm" stroke="red" stroke-width="1" width="2mm" x="1487mm" y="10mm" /><rect fill="blue" height="1mm" stroke="red" stroke-width="1" width="3mm" x="1489mm" y="10mm" /><rect fill="blue" height="1mm" stroke="red" stroke-width="1" width="1mm" x="1492mm" y="10mm" /><rect fill="green" height="1mm" stroke="red" stroke-width="1" width="62mm" x="1493mm" y="10mm" /><rect fill="blue" height="1mm" stroke="red" stroke-width="1" width="4mm" x="1669mm" y="10mm" /><rect fill="blue" height="1mm" stroke="red" stroke-width="1" width="2mm" x="1673mm" y="10mm" /><rect fill="blue" height="1mm" stroke="red" stroke-width="1" width="3mm" x="1675mm" y="10mm" /><rect fill="blue" height="1mm" stroke="red" stroke-width="1" width="0mm" x="1678mm" y="10mm" /><rect fill="green" height="1mm" stroke="red" stroke-width="1" width="67mm" x="1678mm" y="10mm" /><rect fill="blue" height="1mm" stroke="red" stroke-width="1" width="4mm" x="1850mm" y="10mm" /><rect fill="blue" height="1mm" stroke="red" stroke-width="1" width="2mm" x="1854mm" y="10mm" /><rect fill="blue" height="1mm" stroke="red" stroke-width="1" width="2mm" x="1856mm" y="10mm" /><rect fill="blue" height="1mm" stroke="red" stroke-width="1" width="1mm" x="1858mm" y="10mm" /><rect fill="green" height="1mm" stroke="red" stroke-width="1" width="62mm" x="1859mm" y="10mm" /><rect fill="blue" height="1mm" stroke="red" stroke-width="1" width="4mm" x="2029mm" y="10mm" /><rect fill="blue" height="1mm" stroke="red" stroke-width="1" width="2mm" x="2033mm" y="10mm" /><rect fill="blue" height="1mm" stroke="red" stroke-width="1" width="2mm" x="2035mm" y="10mm" /><rect fill="blue" height="1mm" stroke="red" stroke-width="1" width="1mm" x="2037mm" y="10mm" /><rect fill="green" height="1mm" stroke="red" stroke-width="1" width="41mm" x="2038mm" y="10mm" /><rect fill="blue" height="1mm" stroke="red" stroke-width="1" width="4mm" x="2203mm" y="10mm" /><rect fill="blue" height="1mm" stroke="red" stroke-width="1" width="2mm" x="2207mm" y="10mm" /><rect fill="blue" height="1mm" stroke="red" stroke-width="1" width="3mm" x="2209mm" y="10mm" /><rect fill="blue" height="1mm" stroke="red" stroke-width="1" width="1mm" x="2212mm" y="10mm" /><rect fill="green" height="1mm" stroke="red" stroke-width="1" width="25mm" x="2213mm" y="10mm" /><rect fill="blue" height="1mm" stroke="red" stroke-width="1" width="4mm" x="2417mm" y="10mm" /><rect fill="blue" height="1mm" stroke="red" stroke-width="1" width="3mm" x="2421mm" y="10mm" /><rect fill="blue" height="1mm" stroke="red" stroke-width="1" width="16mm" x="2424mm" y="10mm" /><rect fill="blue" height="1mm" stroke="red" stroke-width="1" width="1mm" x="2440mm" y="10mm" /><rect fill="green" height="1mm" stroke="red" stroke-width="1" width="62mm" x="2441mm" y="10mm" /><rect fill="blue" height="1mm" stroke="red" stroke-width="1" width="4mm" x="2621mm" y="10mm" /><rect fill="blue" height="1mm" stroke="red" stroke-width="1" width="2mm" x="2625mm" y="10mm" /><rect fill="blue" height="1mm" stroke="red" stroke-width="1" width="3mm" x="2627mm" y="10mm" /><rect fill="blue" height="1mm" stroke="red" stroke-width="1" width="1mm" x="2630mm" y="10mm" /><rect fill="green" height="1mm" stroke="red" stroke-width="1" width="56mm" x="2631mm" y="10mm" /><rect fill="blue" height="1mm" stroke="red" stroke-width="1" width="5mm" x="2798mm" y="10mm" /><rect fill="blue" height="1mm" stroke="red" stroke-width="1" width="1mm" x="2803mm" y="10mm" /><rect fill="blue" height="1mm" stroke="red" stroke-width="1" width="3mm" x="2804mm" y="10mm" /><rect fill="blue" height="1mm" stroke="red" stroke-width="1" width="1mm" x="2807mm" y="10mm" /><rect fill="green" height="1mm" stroke="red" stroke-width="1" width="28mm" x="2808mm" y="10mm" /><rect fill="blue" height="1mm" stroke="red" stroke-width="1" width="4mm" x="2982mm" y="10mm" /><rect fill="blue" height="1mm" stroke="red" stroke-width="1" width="2mm" x="2986mm" y="10mm" /><rect fill="blue" height="1mm" stroke="red" stroke-width="1" width="2mm" x="2988mm" y="10mm" /><rect fill="blue" height="1mm" stroke="red" stroke-width="1" width="1mm" x="2990mm" y="10mm" /><rect fill="green" height="1mm" stroke="red" stroke-width="1" width="63mm" x="2991mm" y="10mm" /><rect fill="blue" height="1mm" stroke="red" stroke-width="1" width="4mm" x="3169mm" y="10mm" /><rect fill="blue" height="1mm" stroke="red" stroke-width="1" width="2mm" x="3173mm" y="10mm" /><rect fill="blue" height="1mm" stroke="red" stroke-width="1" width="3mm" x="3175mm" y="10mm" /><rect fill="blue" height="1mm" stroke="red" stroke-width="1" width="0mm" x="3178mm" y="10mm" /><rect fill="green" height="1mm" stroke="red" stroke-width="1" width="63mm" x="3178mm" y="10mm" /><rect fill="blue" height="1mm" stroke="red" stroke-width="1" width="5mm" x="3358mm" y="10mm" /><rect fill="blue" height="1mm" stroke="red" stroke-width="1" width="2mm" x="3363mm" y="10mm" /><rect fill="blue" height="1mm" stroke="red" stroke-width="1" width="4mm" x="3365mm" y="10mm" /><rect fill="blue" height="1mm" stroke="red" stroke-width="1" width="1mm" x="3369mm" y="10mm" /><rect fill="green" height="1mm" stroke="red" stroke-width="1" width="32mm" x="3370mm" y="10mm" /><rect fill="blue" height="1mm" stroke="red" stroke-width="1" width="4mm" x="3571mm" y="10mm" /><rect fill="blue" height="1mm" stroke="red" stroke-width="1" width="2mm" x="3575mm" y="10mm" /><rect fill="blue" height="1mm" stroke="red" stroke-width="1" width="3mm" x="3577mm" y="10mm" /><rect fill="blue" height="1mm" stroke="red" stroke-width="1" width="1mm" x="3580mm" y="10mm" /><rect fill="green" height="1mm" stroke="red" stroke-width="1" width="65mm" x="3581mm" y="10mm" /><rect fill="blue" height="1mm" stroke="red" stroke-width="1" width="4mm" x="3759mm" y="10mm" /><rect fill="blue" height="1mm" stroke="red" stroke-width="1" width="2mm" x="3763mm" y="10mm" /><rect fill="blue" height="1mm" stroke="red" stroke-width="1" width="2mm" x="3765mm" y="10mm" /><rect fill="blue" height="1mm" stroke="red" stroke-width="1" width="1mm" x="3767mm" y="10mm" /><rect fill="green" height="1mm" stroke="red" stroke-width="1" width="63mm" x="3768mm" y="10mm" /><rect fill="blue" height="1mm" stroke="red" stroke-width="1" width="4mm" x="3946mm" y="10mm" /><rect fill="blue" height="1mm" stroke="red" stroke-width="1" width="2mm" x="3950mm" y="10mm" /><rect fill="blue" height="1mm" stroke="red" stroke-width="1" width="3mm" x="3952mm" y="10mm" /><rect fill="blue" height="1mm" stroke="red" stroke-width="1" width="1mm" x="3955mm" y="10mm" /><rect fill="green" height="1mm" stroke="red" stroke-width="1" width="62mm" x="3956mm" y="10mm" /><rect fill="blue" height="1mm" stroke="red" stroke-width="1" width="4mm" x="4131mm" y="10mm" /><rect fill="blue" height="1mm" stroke="red" stroke-width="1" width="2mm" x="4135mm" y="10mm" /><rect fill="blue" height="1mm" stroke="red" stroke-width="1" width="2mm" x="4137mm" y="10mm" /><rect fill="blue" height="1mm" stroke="red" stroke-width="1" width="1mm" x="4139mm" y="10mm" /><rect fill="green" height="1mm" stroke="red" stroke-width="1" width="44mm" x="4140mm" y="10mm" /><rect fill="blue" height="1mm" stroke="red" stroke-width="1" width="4mm" x="4310mm" y="10mm" /><rect fill="blue" height="1mm" stroke="red" stroke-width="1" width="2mm" x="4314mm" y="10mm" /><rect fill="blue" height="1mm" stroke="red" stroke-width="1" width="3mm" x="4316mm" y="10mm" /><rect fill="blue" height="1mm" stroke="red" stroke-width="1" width="1mm" x="4319mm" y="10mm" /><rect fill="green" height="1mm" stroke="red" stroke-width="1" width="39mm" x="4320mm" y="10mm" /><rect fill="blue" height="1mm" stroke="red" stroke-width="1" width="4mm" x="4496mm" y="10mm" /><rect fill="blue" height="1mm" stroke="red" stroke-width="1" width="2mm" x="4500mm" y="10mm" /><rect fill="blue" height="1mm" stroke="red" stroke-width="1" width="3mm" x="4502mm" y="10mm" /><rect fill="blue" height="1mm" stroke="red" stroke-width="1" width="1mm" x="4505mm" y="10mm" /><rect fill="green" height="1mm" stroke="red" stroke-width="1" width="38mm" x="4506mm" y="10mm" /><rect fill="blue" height="1mm" stroke="red" stroke-width="1" width="4mm" x="4681mm" y="10mm" /><rect fill="blue" height="1mm" stroke="red" stroke-width="1" width="2mm" x="4685mm" y="10mm" /><rect fill="blue" height="1mm" stroke="red" stroke-width="1" width="3mm" x="4687mm" y="10mm" /><rect fill="blue" height="1mm" stroke="red" stroke-width="1" width="1mm" x="4690mm" y="10mm" /><rect fill="green" height="1mm" stroke="red" stroke-width="1" width="38mm" x="4691mm" y="10mm" /><rect fill="blue" height="1mm" stroke="red" stroke-width="1" width="4mm" x="4864mm" y="10mm" /><rect fill="blue" height="1mm" stroke="red" stroke-width="1" width="2mm" x="4868mm" y="10mm" /><rect fill="blue" height="1mm" stroke="red" stroke-width="1" width="3mm" x="4870mm" y="10mm" /><rect fill="blue" height="1mm" stroke="red" stroke-width="1" width="1mm" x="4873mm" y="10mm" /><rect fill="green" height="1mm" stroke="red" stroke-width="1" width="39mm" x="4874mm" y="10mm" /><rect fill="blue" height="1mm" stroke="red" stroke-width="1" width="4mm" x="5042mm" y="10mm" /><rect fill="blue" height="1mm" stroke="red" stroke-width="1" width="2mm" x="5046mm" y="10mm" /><rect fill="blue" height="1mm" stroke="red" stroke-width="1" width="3mm" x="5048mm" y="10mm" /><rect fill="blue" height="1mm" stroke="red" stroke-width="1" width="1mm" x="5051mm" y="10mm" /><rect fill="green" height="1mm" stroke="red" stroke-width="1" width="26mm" x="5052mm" y="10mm" /><rect fill="blue" height="1mm" stroke="red" stroke-width="1" width="5mm" x="5226mm" y="10mm" /><rect fill="blue" height="1mm" stroke="red" stroke-width="1" width="2mm" x="5231mm" y="10mm" /><rect fill="blue" height="1mm" stroke="red" stroke-width="1" width="3mm" x="5233mm" y="10mm" /><rect fill="blue" height="1mm" stroke="red" stroke-width="1" width="1mm" x="5236mm" y="10mm" /><rect fill="green" height="1mm" stroke="red" stroke-width="1" width="25mm" x="5237mm" y="10mm" /><rect fill="blue" height="1mm" stroke="red" stroke-width="1" width="5mm" x="5413mm" y="10mm" /><rect fill="blue" height="1mm" stroke="red" stroke-width="1" width="2mm" x="5418mm" y="10mm" /><rect fill="blue" height="1mm" stroke="red" stroke-width="1" width="3mm" x="5420mm" y="10mm" /><rect fill="blue" height="1mm" stroke="red" stroke-width="1" width="0mm" x="5423mm" y="10mm" /><rect fill="green" height="1mm" stroke="red" stroke-width="1" width="36mm" x="5423mm" y="10mm" /><rect fill="blue" height="1mm" stroke="red" stroke-width="1" width="5mm" x="5595mm" y="10mm" /><rect fill="blue" height="1mm" stroke="red" stroke-width="1" width="2mm" x="5600mm" y="10mm" /><rect fill="blue" height="1mm" stroke="red" stroke-width="1" width="2mm" x="5602mm" y="10mm" /><rect fill="blue" height="1mm" stroke="red" stroke-width="1" width="1mm" x="5604mm" y="10mm" /><rect fill="green" height="1mm" stroke="red" stroke-width="1" width="40mm" x="5605mm" y="10mm" /><rect fill="blue" height="1mm" stroke="red" stroke-width="1" width="3mm" x="5677mm" y="10mm" /><rect fill="blue" height="1mm" stroke="red" stroke-width="1" width="2mm" x="5680mm" y="10mm" /><rect fill="blue" height="1mm" stroke="red" stroke-width="1" width="2mm" x="5682mm" y="10mm" /><rect fill="blue" height="1mm" stroke="red" stroke-width="1" width="1mm" x="5684mm" y="10mm" /><rect fill="green" height="1mm" stroke="red" stroke-width="1" width="39mm" x="5685mm" y="10mm" /><rect fill="blue" height="1mm" stroke="red" stroke-width="1" width="4mm" x="5745mm" y="10mm" /><rect fill="blue" height="1mm" stroke="red" stroke-width="1" width="1mm" x="5749mm" y="10mm" /><rect fill="blue" height="1mm" stroke="red" stroke-width="1" width="3mm" x="5750mm" y="10mm" /><rect fill="blue" height="1mm" stroke="red" stroke-width="1" width="0mm" x="5753mm" y="10mm" /><rect fill="green" height="1mm" stroke="red" stroke-width="1" width="39mm" x="5753mm" y="10mm" /><rect fill="blue" height="1mm" stroke="red" stroke-width="1" width="3mm" x="5812mm" y="10mm" /><rect fill="blue" height="1mm" stroke="red" stroke-width="1" width="2mm" x="5815mm" y="10mm" /><rect fill="blue" height="1mm" stroke="red" stroke-width="1" width="2mm" x="5817mm" y="10mm" /><rect fill="blue" height="1mm" stroke="red" stroke-width="1" width="1mm" x="5819mm" y="10mm" /><rect fill="green" height="1mm" stroke="red" stroke-width="1" width="33mm" x="5820mm" y="10mm" /><rect fill="blue" height="1mm" stroke="red" stroke-width="1" width="4mm" x="5879mm" y="10mm" /><rect fill="blue" height="1mm" stroke="red" stroke-width="1" width="1mm" x="5883mm" y="10mm" /><rect fill="blue" height="1mm" stroke="red" stroke-width="1" width="3mm" x="5884mm" y="10mm" /><rect fill="blue" height="1mm" stroke="red" stroke-width="1" width="0mm" x="5887mm" y="10mm" /><rect fill="green" height="1mm" stroke="red" stroke-width="1" width="26mm" x="5887mm" y="10mm" /><rect fill="blue" height="1mm" stroke="red" stroke-width="1" width="13mm" x="5946mm" y="10mm" /><rect fill="blue" height="1mm" stroke="red" stroke-width="1" width="2mm" x="5959mm" y="10mm" /><rect fill="blue" height="1mm" stroke="red" stroke-width="1" width="3mm" x="5961mm" y="10mm" /><rect fill="blue" height="1mm" stroke="red" stroke-width="1" width="0mm" x="5964mm" y="10mm" /><rect fill="green" height="1mm" stroke="red" stroke-width="1" width="25mm" x="5964mm" y="10mm" /><rect fill="blue" height="1mm" stroke="red" stroke-width="1" width="5mm" x="6025mm" y="10mm" /><rect fill="blue" height="1mm" stroke="red" stroke-width="1" width="2mm" x="6030mm" y="10mm" /><rect fill="blue" height="1mm" stroke="red" stroke-width="1" width="3mm" x="6032mm" y="10mm" /><rect fill="blue" height="1mm" stroke="red" stroke-width="1" width="0mm" x="6035mm" y="10mm" /><rect fill="green" height="1mm" stroke="red" stroke-width="1" width="25mm" x="6035mm" y="10mm" /><rect fill="blue" height="1mm" stroke="red" stroke-width="1" width="3mm" x="6095mm" y="10mm" /><rect fill="blue" height="1mm" stroke="red" stroke-width="1" width="1mm" x="6098mm" y="10mm" /><rect fill="blue" height="1mm" stroke="red" stroke-width="1" width="3mm" x="6099mm" y="10mm" /><rect fill="blue" height="1mm" stroke="red" stroke-width="1" width="0mm" x="6102mm" y="10mm" /><rect fill="green" height="1mm" stroke="red" stroke-width="1" width="20mm" x="6102mm" y="10mm" /><rect fill="blue" height="1mm" stroke="red" stroke-width="1" width="4mm" x="6161mm" y="10mm" /><rect fill="blue" height="1mm" stroke="red" stroke-width="1" width="1mm" x="6165mm" y="10mm" /><rect fill="blue" height="1mm" stroke="red" stroke-width="1" width="3mm" x="6166mm" y="10mm" /><rect fill="blue" height="1mm" stroke="red" stroke-width="1" width="0mm" x="6169mm" y="10mm" /><rect fill="green" height="1mm" stroke="red" stroke-width="1" width="26mm" x="6169mm" y="10mm" /><rect fill="blue" height="1mm" stroke="red" stroke-width="1" width="3mm" x="6227mm" y="10mm" /><rect fill="blue" height="1mm" stroke="red" stroke-width="1" width="2mm" x="6230mm" y="10mm" /><rect fill="blue" height="1mm" stroke="red" stroke-width="1" width="3mm" x="6232mm" y="10mm" /><rect fill="blue" height="1mm" stroke="red" stroke-width="1" width="0mm" x="6235mm" y="10mm" /><rect fill="green" height="1mm" stroke="red" stroke-width="1" width="26mm" x="6235mm" y="10mm" /><rect fill="blue" height="1mm" stroke="red" stroke-width="1" width="4mm" x="6293mm" y="10mm" /><rect fill="blue" height="1mm" stroke="red" stroke-width="1" width="2mm" x="6297mm" y="10mm" /><rect fill="blue" height="1mm" stroke="red" stroke-width="1" width="2mm" x="6299mm" y="10mm" /><rect fill="blue" height="1mm" stroke="red" stroke-width="1" width="1mm" x="6301mm" y="10mm" /><rect fill="green" height="1mm" stroke="red" stroke-width="1" width="30mm" x="6302mm" y="10mm" /><rect fill="blue" height="1mm" stroke="red" stroke-width="1" width="4mm" x="6412mm" y="10mm" /><rect fill="blue" height="1mm" stroke="red" stroke-width="1" width="2mm" x="6416mm" y="10mm" /><rect fill="blue" height="1mm" stroke="red" stroke-width="1" width="3mm" x="6418mm" y="10mm" /><rect fill="blue" height="1mm" stroke="red" stroke-width="1" width="0mm" x="6421mm" y="10mm" /><rect fill="green" height="1mm" stroke="red" stroke-width="1" width="26mm" x="6421mm" y="10mm" /><rect fill="blue" height="1mm" stroke="red" stroke-width="1" width="4mm" x="6481mm" y="10mm" /><rect fill="blue" height="1mm" stroke="red" stroke-width="1" width="1mm" x="6485mm" y="10mm" /><rect fill="blue" height="1mm" stroke="red" stroke-width="1" width="3mm" x="6486mm" y="10mm" /><rect fill="blue" height="1mm" stroke="red" stroke-width="1" width="0mm" x="6489mm" y="10mm" /><rect fill="green" height="1mm" stroke="red" stroke-width="1" width="26mm" x="6489mm" y="10mm" /><rect fill="blue" height="1mm" stroke="red" stroke-width="1" width="3mm" x="6548mm" y="10mm" /><rect fill="blue" height="1mm" stroke="red" stroke-width="1" width="2mm" x="6551mm" y="10mm" /><rect fill="blue" height="1mm" stroke="red" stroke-width="1" width="2mm" x="6553mm" y="10mm" /><rect fill="blue" height="1mm" stroke="red" stroke-width="1" width="1mm" x="6555mm" y="10mm" /><rect fill="green" height="1mm" stroke="red" stroke-width="1" width="25mm" x="6556mm" y="10mm" /><rect fill="blue" height="1mm" stroke="red" stroke-width="1" width="3mm" x="6614mm" y="10mm" /><rect fill="blue" height="1mm" stroke="red" stroke-width="1" width="2mm" x="6617mm" y="10mm" /><rect fill="blue" height="1mm" stroke="red" stroke-width="1" width="2mm" x="6619mm" y="10mm" /><rect fill="blue" height="1mm" stroke="red" stroke-width="1" width="1mm" x="6621mm" y="10mm" /><rect fill="green" height="1mm" stroke="red" stroke-width="1" width="25mm" x="6622mm" y="10mm" /><rect fill="blue" height="1mm" stroke="red" stroke-width="1" width="4mm" x="6680mm" y="10mm" /><rect fill="blue" height="1mm" stroke="red" stroke-width="1" width="1mm" x="6684mm" y="10mm" /><rect fill="blue" height="1mm" stroke="red" stroke-width="1" width="3mm" x="6685mm" y="10mm" /><rect fill="blue" height="1mm" stroke="red" stroke-width="1" width="0mm" x="6688mm" y="10mm" /><rect fill="green" height="1mm" stroke="red" stroke-width="1" width="25mm" x="6688mm" y="10mm" /><rect fill="blue" height="1mm" stroke="red" stroke-width="1" width="4mm" x="6746mm" y="10mm" /><rect fill="blue" height="1mm" stroke="red" stroke-width="1" width="1mm" x="6750mm" y="10mm" /><rect fill="blue" height="1mm" stroke="red" stroke-width="1" width="3mm" x="6751mm" y="10mm" /><rect fill="blue" height="1mm" stroke="red" stroke-width="1" width="0mm" x="6754mm" y="10mm" /><rect fill="green" height="1mm" stroke="red" stroke-width="1" width="26mm" x="6754mm" y="10mm" /><rect fill="blue" height="1mm" stroke="red" stroke-width="1" width="4mm" x="6812mm" y="10mm" /><rect fill="blue" height="1mm" stroke="red" stroke-width="1" width="1mm" x="6816mm" y="10mm" /><rect fill="blue" height="1mm" stroke="red" stroke-width="1" width="3mm" x="6817mm" y="10mm" /><rect fill="blue" height="1mm" stroke="red" stroke-width="1" width="0mm" x="6820mm" y="10mm" /><rect fill="green" height="1mm" stroke="red" stroke-width="1" width="28mm" x="6820mm" y="10mm" /><rect fill="blue" height="1mm" stroke="red" stroke-width="1" width="3mm" x="6878mm" y="10mm" /><rect fill="blue" height="1mm" stroke="red" stroke-width="1" width="2mm" x="6881mm" y="10mm" /><rect fill="blue" height="1mm" stroke="red" stroke-width="1" width="3mm" x="6883mm" y="10mm" /><rect fill="blue" height="1mm" stroke="red" stroke-width="1" width="0mm" x="6886mm" y="10mm" /><rect fill="green" height="1mm" stroke="red" stroke-width="1" width="25mm" x="6886mm" y="10mm" /><rect fill="blue" height="1mm" stroke="red" stroke-width="1" width="3mm" x="6944mm" y="10mm" /><rect fill="blue" height="1mm" stroke="red" stroke-width="1" width="2mm" x="6947mm" y="10mm" /><rect fill="blue" height="1mm" stroke="red" stroke-width="1" width="2mm" x="6949mm" y="10mm" /><rect fill="blue" height="1mm" stroke="red" stroke-width="1" width="1mm" x="6951mm" y="10mm" /><rect fill="green" height="1mm" stroke="red" stroke-width="1" width="25mm" x="6952mm" y="10mm" /><rect fill="blue" height="1mm" stroke="red" stroke-width="1" width="4mm" x="7009mm" y="10mm" /><rect fill="blue" height="1mm" stroke="red" stroke-width="1" width="1mm" x="7013mm" y="10mm" /><rect fill="blue" height="1mm" stroke="red" stroke-width="1" width="3mm" x="7014mm" y="10mm" /><rect fill="blue" height="1mm" stroke="red" stroke-width="1" width="0mm" x="7017mm" y="10mm" /><rect fill="green" height="1mm" stroke="red" stroke-width="1" width="26mm" x="7017mm" y="10mm" /><rect fill="blue" height="1mm" stroke="red" stroke-width="1" width="3mm" x="7075mm" y="10mm" /><rect fill="blue" height="1mm" stroke="red" stroke-width="1" width="2mm" x="7078mm" y="10mm" /><rect fill="blue" height="1mm" stroke="red" stroke-width="1" width="2mm" x="7080mm" y="10mm" /><rect fill="blue" height="1mm" stroke="red" stroke-width="1" width="1mm" x="7082mm" y="10mm" /><rect fill="green" height="1mm" stroke="red" stroke-width="1" width="25mm" x="7083mm" y="10mm" /><rect fill="blue" height="1mm" stroke="red" stroke-width="1" width="3mm" x="7141mm" y="10mm" /><rect fill="blue" height="1mm" stroke="red" stroke-width="1" width="2mm" x="7144mm" y="10mm" /><rect fill="blue" height="1mm" stroke="red" stroke-width="1" width="3mm" x="7146mm" y="10mm" /><rect fill="blue" height="1mm" stroke="red" stroke-width="1" width="0mm" x="7149mm" y="10mm" /><rect fill="green" height="1mm" stroke="red" stroke-width="1" width="26mm" x="7149mm" y="10mm" /><rect fill="blue" height="1mm" stroke="red" stroke-width="1" width="4mm" x="7207mm" y="10mm" /><rect fill="blue" height="1mm" stroke="red" stroke-width="1" width="2mm" x="7211mm" y="10mm" /><rect fill="blue" height="1mm" stroke="red" stroke-width="1" width="2mm" x="7213mm" y="10mm" /><rect fill="blue" height="1mm" stroke="red" stroke-width="1" width="1mm" x="7215mm" y="10mm" /><rect fill="green" height="1mm" stroke="red" stroke-width="1" width="25mm" x="7216mm" y="10mm" /><rect fill="blue" height="1mm" stroke="red" stroke-width="1" width="4mm" x="7273mm" y="10mm" /><rect fill="blue" height="1mm" stroke="red" stroke-width="1" width="1mm" x="7277mm" y="10mm" /><rect fill="blue" height="1mm" stroke="red" stroke-width="1" width="3mm" x="7278mm" y="10mm" /><rect fill="blue" height="1mm" stroke="red" stroke-width="1" width="0mm" x="7281mm" y="10mm" /><rect fill="green" height="1mm" stroke="red" stroke-width="1" width="26mm" x="7281mm" y="10mm" /><rect fill="blue" height="1mm" stroke="red" stroke-width="1" width="4mm" x="7338mm" y="10mm" /><rect fill="blue" height="1mm" stroke="red" stroke-width="1" width="1mm" x="7342mm" y="10mm" /><rect fill="blue" height="1mm" stroke="red" stroke-width="1" width="3mm" x="7343mm" y="10mm" /><rect fill="blue" height="1mm" stroke="red" stroke-width="1" width="0mm" x="7346mm" y="10mm" /><rect fill="green" height="1mm" stroke="red" stroke-width="1" width="25mm" x="7346mm" y="10mm" /><rect fill="blue" height="1mm" stroke="red" stroke-width="1" width="3mm" x="7404mm" y="10mm" /><rect fill="blue" height="1mm" stroke="red" stroke-width="1" width="2mm" x="7407mm" y="10mm" /><rect fill="blue" height="1mm" stroke="red" stroke-width="1" width="3mm" x="7409mm" y="10mm" /><rect fill="blue" height="1mm" stroke="red" stroke-width="1" width="1mm" x="7412mm" y="10mm" /><rect fill="green" height="1mm" stroke="red" stroke-width="1" width="33mm" x="7413mm" y="10mm" /><rect fill="blue" height="1mm" stroke="red" stroke-width="1" width="3mm" x="7480mm" y="10mm" /><rect fill="blue" height="1mm" stroke="red" stroke-width="1" width="2mm" x="7483mm" y="10mm" /><rect fill="blue" height="1mm" stroke="red" stroke-width="1" width="2mm" x="7485mm" y="10mm" /><rect fill="blue" height="1mm" stroke="red" stroke-width="1" width="1mm" x="7487mm" y="10mm" /><rect fill="green" height="1mm" stroke="red" stroke-width="1" width="25mm" x="7488mm" y="10mm" /><rect fill="blue" height="1mm" stroke="red" stroke-width="1" width="4mm" x="7546mm" y="10mm" /><rect fill="blue" height="1mm" stroke="red" stroke-width="1" width="1mm" x="7550mm" y="10mm" /><rect fill="blue" height="1mm" stroke="red" stroke-width="1" width="3mm" x="7551mm" y="10mm" /><rect fill="blue" height="1mm" stroke="red" stroke-width="1" width="0mm" x="7554mm" y="10mm" /><rect fill="green" height="1mm" stroke="red" stroke-width="1" width="26mm" x="7554mm" y="10mm" /><rect fill="blue" height="1mm" stroke="red" stroke-width="1" width="4mm" x="7611mm" y="10mm" /><rect fill="blue" height="1mm" stroke="red" stroke-width="1" width="2mm" x="7615mm" y="10mm" /><rect fill="blue" height="1mm" stroke="red" stroke-width="1" width="2mm" x="7617mm" y="10mm" /><rect fill="blue" height="1mm" stroke="red" stroke-width="1" width="1mm" x="7619mm" y="10mm" /><rect fill="green" height="1mm" stroke="red" stroke-width="1" width="25mm" x="7620mm" y="10mm" /><rect fill="blue" height="1mm" stroke="red" stroke-width="1" width="4mm" x="7677mm" y="10mm" /><rect fill="blue" height="1mm" stroke="red" stroke-width="1" width="1mm" x="7681mm" y="10mm" /><rect fill="blue" height="1mm" stroke="red" stroke-width="1" width="3mm" x="7682mm" y="10mm" /><rect fill="blue" height="1mm" stroke="red" stroke-width="1" width="0mm" x="7685mm" y="10mm" /><rect fill="green" height="1mm" stroke="red" stroke-width="1" width="26mm" x="7685mm" y="10mm" /><rect fill="blue" height="1mm" stroke="red" stroke-width="1" width="3mm" x="7743mm" y="10mm" /><rect fill="blue" height="1mm" stroke="red" stroke-width="1" width="2mm" x="7746mm" y="10mm" /><rect fill="blue" height="1mm" stroke="red" stroke-width="1" width="2mm" x="7748mm" y="10mm" /><rect fill="blue" height="1mm" stroke="red" stroke-width="1" width="1mm" x="7750mm" y="10mm" /><rect fill="green" height="1mm" stroke="red" stroke-width="1" width="25mm" x="7751mm" y="10mm" /><rect fill="blue" height="1mm" stroke="red" stroke-width="1" width="4mm" x="7808mm" y="10mm" /><rect fill="blue" height="1mm" stroke="red" stroke-width="1" width="1mm" x="7812mm" y="10mm" /><rect fill="blue" height="1mm" stroke="red" stroke-width="1" width="3mm" x="7813mm" y="10mm" /><rect fill="blue" height="1mm" stroke="red" stroke-width="1" width="0mm" x="7816mm" y="10mm" /><rect fill="green" height="1mm" stroke="red" stroke-width="1" width="26mm" x="7816mm" y="10mm" /><rect fill="blue" height="1mm" stroke="red" stroke-width="1" width="3mm" x="7874mm" y="10mm" /><rect fill="blue" height="1mm" stroke="red" stroke-width="1" width="2mm" x="7877mm" y="10mm" /><rect fill="blue" height="1mm" stroke="red" stroke-width="1" width="2mm" x="7879mm" y="10mm" /><rect fill="blue" height="1mm" stroke="red" stroke-width="1" width="1mm" x="7881mm" y="10mm" /><rect fill="green" height="1mm" stroke="red" stroke-width="1" width="25mm" x="7882mm" y="10mm" /><rect fill="blue" height="1mm" stroke="red" stroke-width="1" width="4mm" x="7939mm" y="10mm" /><rect fill="blue" height="1mm" stroke="red" stroke-width="1" width="2mm" x="7943mm" y="10mm" /><rect fill="blue" height="1mm" stroke="red" stroke-width="1" width="2mm" x="7945mm" y="10mm" /><rect fill="blue" height="1mm" stroke="red" stroke-width="1" width="1mm" x="7947mm" y="10mm" /><rect fill="green" height="1mm" stroke="red" stroke-width="1" width="25mm" x="7948mm" y="10mm" /><rect fill="blue" height="1mm" stroke="red" stroke-width="1" width="3mm" x="8006mm" y="10mm" /><rect fill="blue" height="1mm" stroke="red" stroke-width="1" width="2mm" x="8009mm" y="10mm" /><rect fill="blue" height="1mm" stroke="red" stroke-width="1" width="2mm" x="8011mm" y="10mm" /><rect fill="blue" height="1mm" stroke="red" stroke-width="1" width="1mm" x="8013mm" y="10mm" /><rect fill="green" height="1mm" stroke="red" stroke-width="1" width="25mm" x="8014mm" y="10mm" /><rect fill="blue" height="1mm" stroke="red" stroke-width="1" width="3mm" x="8071mm" y="10mm" /><rect fill="blue" height="1mm" stroke="red" stroke-width="1" width="2mm" x="8074mm" y="10mm" /><rect fill="blue" height="1mm" stroke="red" stroke-width="1" width="2mm" x="8076mm" y="10mm" /><rect fill="blue" height="1mm" stroke="red" stroke-width="1" width="1mm" x="8078mm" y="10mm" /><rect fill="green" height="1mm" stroke="red" stroke-width="1" width="25mm" x="8079mm" y="10mm" /><rect fill="blue" height="1mm" stroke="red" stroke-width="1" width="3mm" x="8137mm" y="10mm" /><rect fill="blue" height="1mm" stroke="red" stroke-width="1" width="2mm" x="8140mm" y="10mm" /><rect fill="blue" height="1mm" stroke="red" stroke-width="1" width="2mm" x="8142mm" y="10mm" /><rect fill="blue" height="1mm" stroke="red" stroke-width="1" width="1mm" x="8144mm" y="10mm" /><rect fill="green" height="1mm" stroke="red" stroke-width="1" width="25mm" x="8145mm" y="10mm" /><rect fill="blue" height="1mm" stroke="red" stroke-width="1" width="3mm" x="8203mm" y="10mm" /><rect fill="blue" height="1mm" stroke="red" stroke-width="1" width="2mm" x="8206mm" y="10mm" /><rect fill="blue" height="1mm" stroke="red" stroke-width="1" width="2mm" x="8208mm" y="10mm" /><rect fill="blue" height="1mm" stroke="red" stroke-width="1" width="0mm" x="8210mm" y="10mm" /><rect fill="green" height="1mm" stroke="red" stroke-width="1" width="26mm" x="8210mm" y="10mm" /><rect fill="blue" height="1mm" stroke="red" stroke-width="1" width="4mm" x="8268mm" y="10mm" /><rect fill="blue" height="1mm" stroke="red" stroke-width="1" width="1mm" x="8272mm" y="10mm" /><rect fill="blue" height="1mm" stroke="red" stroke-width="1" width="3mm" x="8273mm" y="10mm" /><rect fill="blue" height="1mm" stroke="red" stroke-width="1" width="0mm" x="8276mm" y="10mm" /><rect fill="green" height="1mm" stroke="red" stroke-width="1" width="26mm" x="8276mm" y="10mm" /><rect fill="blue" height="1mm" stroke="red" stroke-width="1" width="4mm" x="8334mm" y="10mm" /><rect fill="blue" height="1mm" stroke="red" stroke-width="1" width="1mm" x="8338mm" y="10mm" /><rect fill="blue" height="1mm" stroke="red" stroke-width="1" width="3mm" x="8339mm" y="10mm" /><rect fill="blue" height="1mm" stroke="red" stroke-width="1" width="0mm" x="8342mm" y="10mm" /><rect fill="green" height="1mm" stroke="red" stroke-width="1" width="26mm" x="8342mm" y="10mm" /><rect fill="blue" height="1mm" stroke="red" stroke-width="1" width="3mm" x="8400mm" y="10mm" /><rect fill="blue" height="1mm" stroke="red" stroke-width="1" width="2mm" x="8403mm" y="10mm" /><rect fill="blue" height="1mm" stroke="red" stroke-width="1" width="3mm" x="8405mm" y="10mm" /><rect fill="blue" height="1mm" stroke="red" stroke-width="1" width="0mm" x="8408mm" y="10mm" /><rect fill="green" height="1mm" stroke="red" stroke-width="1" width="25mm" x="8408mm" y="10mm" /><rect fill="blue" height="1mm" stroke="red" stroke-width="1" width="3mm" x="8466mm" y="10mm" /><rect fill="blue" height="1mm" stroke="red" stroke-width="1" width="2mm" x="8469mm" y="10mm" /><rect fill="blue" height="1mm" stroke="red" stroke-width="1" width="2mm" x="8471mm" y="10mm" /><rect fill="blue" height="1mm" stroke="red" stroke-width="1" width="1mm" x="8473mm" y="10mm" /><rect fill="green" height="1mm" stroke="red" stroke-width="1" width="27mm" x="8474mm" y="10mm" /><rect fill="blue" height="1mm" stroke="red" stroke-width="1" width="4mm" x="8550mm" y="10mm" /><rect fill="blue" height="1mm" stroke="red" stroke-width="1" width="2mm" x="8554mm" y="10mm" /><rect fill="blue" height="1mm" stroke="red" stroke-width="1" width="2mm" x="8556mm" y="10mm" /><rect fill="blue" height="1mm" stroke="red" stroke-width="1" width="1mm" x="8558mm" y="10mm" /><rect fill="green" height="1mm" stroke="red" stroke-width="1" width="26mm" x="8559mm" y="10mm" /><rect fill="blue" height="1mm" stroke="red" stroke-width="1" width="4mm" x="8641mm" y="10mm" /><rect fill="blue" height="1mm" stroke="red" stroke-width="1" width="2mm" x="8645mm" y="10mm" /><rect fill="blue" height="1mm" stroke="red" stroke-width="1" width="3mm" x="8647mm" y="10mm" /><rect fill="blue" height="1mm" stroke="red" stroke-width="1" width="1mm" x="8650mm" y="10mm" /><rect fill="green" height="1mm" stroke="red" stroke-width="1" width="26mm" x="8651mm" y="10mm" /><rect fill="blue" height="1mm" stroke="red" stroke-width="1" width="3mm" x="8714mm" y="10mm" /><rect fill="blue" height="1mm" stroke="red" stroke-width="1" width="2mm" x="8717mm" y="10mm" /><rect fill="blue" height="1mm" stroke="red" stroke-width="1" width="3mm" x="8719mm" y="10mm" /><rect fill="blue" height="1mm" stroke="red" stroke-width="1" width="0mm" x="8722mm" y="10mm" /><rect fill="green" height="1mm" stroke="red" stroke-width="1" width="27mm" x="8722mm" y="10mm" /><rect fill="blue" height="1mm" stroke="red" stroke-width="1" width="4mm" x="8781mm" y="10mm" /><rect fill="blue" height="1mm" stroke="red" stroke-width="1" width="1mm" x="8785mm" y="10mm" /><rect fill="blue" height="1mm" stroke="red" stroke-width="1" width="3mm" x="8786mm" y="10mm" /><rect fill="blue" height="1mm" stroke="red" stroke-width="1" width="0mm" x="8789mm" y="10mm" /><rect fill="green" height="1mm" stroke="red" stroke-width="1" width="26mm" x="8789mm" y="10mm" /><rect fill="blue" height="1mm" stroke="red" stroke-width="1" width="3mm" x="8848mm" y="10mm" /><rect fill="blue" height="1mm" stroke="red" stroke-width="1" width="2mm" x="8851mm" y="10mm" /><rect fill="blue" height="1mm" stroke="red" stroke-width="1" width="2mm" x="8853mm" y="10mm" /><rect fill="blue" height="1mm" stroke="red" stroke-width="1" width="1mm" x="8855mm" y="10mm" /><rect fill="green" height="1mm" stroke="red" stroke-width="1" width="25mm" x="8856mm" y="10mm" /><rect fill="blue" height="1mm" stroke="red" stroke-width="1" width="5mm" x="8913mm" y="10mm" /><rect fill="blue" height="1mm" stroke="red" stroke-width="1" width="9mm" x="8918mm" y="10mm" /><rect fill="blue" height="1mm" stroke="red" stroke-width="1" width="3mm" x="8927mm" y="10mm" /><rect fill="blue" height="1mm" stroke="red" stroke-width="1" width="0mm" x="8930mm" y="10mm" /><rect fill="green" height="1mm" stroke="red" stroke-width="1" width="25mm" x="8930mm" y="10mm" /><rect fill="blue" height="1mm" stroke="red" stroke-width="1" width="4mm" x="8989mm" y="10mm" /><rect fill="blue" height="1mm" stroke="red" stroke-width="1" width="2mm" x="8993mm" y="10mm" /><rect fill="blue" height="1mm" stroke="red" stroke-width="1" width="2mm" x="8995mm" y="10mm" /><rect fill="blue" height="1mm" stroke="red" stroke-width="1" width="1mm" x="8997mm" y="10mm" /><rect fill="green" height="1mm" stroke="red" stroke-width="1" width="27mm" x="8998mm" y="10mm" /><rect fill="blue" height="1mm" stroke="red" stroke-width="1" width="4mm" x="9055mm" y="10mm" /><rect fill="blue" height="1mm" stroke="red" stroke-width="1" width="1mm" x="9059mm" y="10mm" /><rect fill="blue" height="1mm" stroke="red" stroke-width="1" width="3mm" x="9060mm" y="10mm" /><rect fill="blue" height="1mm" stroke="red" stroke-width="1" width="0mm" x="9063mm" y="10mm" /><rect fill="green" height="1mm" stroke="red" stroke-width="1" width="26mm" x="9063mm" y="10mm" /><rect fill="blue" height="1mm" stroke="red" stroke-width="1" width="4mm" x="9121mm" y="10mm" /><rect fill="blue" height="1mm" stroke="red" stroke-width="1" width="1mm" x="9125mm" y="10mm" /><rect fill="blue" height="1mm" stroke="red" stroke-width="1" width="3mm" x="9126mm" y="10mm" /><rect fill="blue" height="1mm" stroke="red" stroke-width="1" width="0mm" x="9129mm" y="10mm" /><rect fill="green" height="1mm" stroke="red" stroke-width="1" width="26mm" x="9129mm" y="10mm" /><rect fill="blue" height="1mm" stroke="red" stroke-width="1" width="4mm" x="9187mm" y="10mm" /><rect fill="blue" height="1mm" stroke="red" stroke-width="1" width="1mm" x="9191mm" y="10mm" /><rect fill="blue" height="1mm" stroke="red" stroke-width="1" width="3mm" x="9192mm" y="10mm" /><rect fill="blue" height="1mm" stroke="red" stroke-width="1" width="0mm" x="9195mm" y="10mm" /><rect fill="green" height="1mm" stroke="red" stroke-width="1" width="26mm" x="9195mm" y="10mm" /><rect fill="blue" height="1mm" stroke="red" stroke-width="1" width="4mm" x="9253mm" y="10mm" /><rect fill="blue" height="1mm" stroke="red" stroke-width="1" width="2mm" x="9257mm" y="10mm" /><rect fill="blue" height="1mm" stroke="red" stroke-width="1" width="2mm" x="9259mm" y="10mm" /><rect fill="blue" height="1mm" stroke="red" stroke-width="1" width="0mm" x="9261mm" y="10mm" /><rect fill="green" height="1mm" stroke="red" stroke-width="1" width="26mm" x="9261mm" y="10mm" /><rect fill="blue" height="1mm" stroke="red" stroke-width="1" width="4mm" x="9319mm" y="10mm" /><rect fill="blue" height="1mm" stroke="red" stroke-width="1" width="1mm" x="9323mm" y="10mm" /><rect fill="blue" height="1mm" stroke="red" stroke-width="1" width="3mm" x="9324mm" y="10mm" /><rect fill="blue" height="1mm" stroke="red" stroke-width="1" width="0mm" x="9327mm" y="10mm" /><rect fill="green" height="1mm" stroke="red" stroke-width="1" width="26mm" x="9327mm" y="10mm" /><rect fill="blue" height="1mm" stroke="red" stroke-width="1" width="3mm" x="9385mm" y="10mm" /><rect fill="blue" height="1mm" stroke="red" stroke-width="1" width="2mm" x="9388mm" y="10mm" /><rect fill="blue" height="1mm" stroke="red" stroke-width="1" width="2mm" x="9390mm" y="10mm" /><rect fill="blue" height="1mm" stroke="red" stroke-width="1" width="1mm" x="9392mm" y="10mm" /><rect fill="green" height="1mm" stroke="red" stroke-width="1" width="25mm" x="9393mm" y="10mm" /><rect fill="blue" height="1mm" stroke="red" stroke-width="1" width="4mm" x="9451mm" y="10mm" /><rect fill="blue" height="1mm" stroke="red" stroke-width="1" width="2mm" x="9455mm" y="10mm" /><rect fill="blue" height="1mm" stroke="red" stroke-width="1" width="2mm" x="9457mm" y="10mm" /><rect fill="blue" height="1mm" stroke="red" stroke-width="1" width="1mm" x="9459mm" y="10mm" /><rect fill="green" height="1mm" stroke="red" stroke-width="1" width="25mm" x="9460mm" y="10mm" /><rect fill="blue" height="1mm" stroke="red" stroke-width="1" width="3mm" x="9518mm" y="10mm" /><rect fill="blue" height="1mm" stroke="red" stroke-width="1" width="2mm" x="9521mm" y="10mm" /><rect fill="blue" height="1mm" stroke="red" stroke-width="1" width="2mm" x="9523mm" y="10mm" /><rect fill="blue" height="1mm" stroke="red" stroke-width="1" width="1mm" x="9525mm" y="10mm" /><rect fill="green" height="1mm" stroke="red" stroke-width="1" width="25mm" x="9526mm" y="10mm" /><rect fill="blue" height="1mm" stroke="red" stroke-width="1" width="4mm" x="9583mm" y="10mm" /><rect fill="blue" height="1mm" stroke="red" stroke-width="1" width="1mm" x="9587mm" y="10mm" /><rect fill="blue" height="1mm" stroke="red" stroke-width="1" width="3mm" x="9588mm" y="10mm" /><rect fill="blue" height="1mm" stroke="red" stroke-width="1" width="0mm" x="9591mm" y="10mm" /><rect fill="green" height="1mm" stroke="red" stroke-width="1" width="26mm" x="9591mm" y="10mm" /><rect fill="blue" height="1mm" stroke="red" stroke-width="1" width="3mm" x="9649mm" y="10mm" /><rect fill="blue" height="1mm" stroke="red" stroke-width="1" width="2mm" x="9652mm" y="10mm" /><rect fill="blue" height="1mm" stroke="red" stroke-width="1" width="2mm" x="9654mm" y="10mm" /><rect fill="blue" height="1mm" stroke="red" stroke-width="1" width="0mm" x="9656mm" y="10mm" /><rect fill="green" height="1mm" stroke="red" stroke-width="1" width="26mm" x="9656mm" y="10mm" /><rect fill="blue" height="1mm" stroke="red" stroke-width="1" width="4mm" x="9714mm" y="10mm" /><rect fill="blue" height="1mm" stroke="red" stroke-width="1" width="1mm" x="9718mm" y="10mm" /><rect fill="blue" height="1mm" stroke="red" stroke-width="1" width="3mm" x="9719mm" y="10mm" /><rect fill="blue" height="1mm" stroke="red" stroke-width="1" width="0mm" x="9722mm" y="10mm" /><rect fill="green" height="1mm" stroke="red" stroke-width="1" width="26mm" x="9722mm" y="10mm" /><rect fill="blue" height="1mm" stroke="red" stroke-width="1" width="3mm" x="9781mm" y="10mm" /><rect fill="blue" height="1mm" stroke="red" stroke-width="1" width="2mm" x="9784mm" y="10mm" /><rect fill="blue" height="1mm" stroke="red" stroke-width="1" width="2mm" x="9786mm" y="10mm" /><rect fill="blue" height="1mm" stroke="red" stroke-width="1" width="1mm" x="9788mm" y="10mm" /><rect fill="green" height="1mm" stroke="red" stroke-width="1" width="25mm" x="9789mm" y="10mm" /><rect fill="blue" height="1mm" stroke="red" stroke-width="1" width="4mm" x="9846mm" y="10mm" /><rect fill="blue" height="1mm" stroke="red" stroke-width="1" width="2mm" x="9850mm" y="10mm" /><rect fill="blue" height="1mm" stroke="red" stroke-width="1" width="2mm" x="9852mm" y="10mm" /><rect fill="blue" height="1mm" stroke="red" stroke-width="1" width="1mm" x="9854mm" y="10mm" /><rect fill="green" height="1mm" stroke="red" stroke-width="1" width="25mm" x="9855mm" y="10mm" /><rect fill="blue" height="1mm" stroke="red" stroke-width="1" width="3mm" x="9912mm" y="10mm" /><rect fill="blue" height="1mm" stroke="red" stroke-width="1" width="2mm" x="9915mm" y="10mm" /><rect fill="blue" height="1mm" stroke="red" stroke-width="1" width="2mm" x="9917mm" y="10mm" /><rect fill="blue" height="1mm" stroke="red" stroke-width="1" width="1mm" x="9919mm" y="10mm" /><rect fill="green" height="1mm" stroke="red" stroke-width="1" width="25mm" x="9920mm" y="10mm" /><rect fill="blue" height="1mm" stroke="red" stroke-width="1" width="4mm" x="9977mm" y="10mm" /><rect fill="blue" height="1mm" stroke="red" stroke-width="1" width="2mm" x="9981mm" y="10mm" /><rect fill="blue" height="1mm" stroke="red" stroke-width="1" width="2mm" x="9983mm" y="10mm" /><rect fill="blue" height="1mm" stroke="red" stroke-width="1" width="1mm" x="9985mm" y="10mm" /><rect fill="green" height="1mm" stroke="red" stroke-width="1" width="40mm" x="9986mm" y="10mm" /><rect fill="blue" height="1mm" stroke="red" stroke-width="1" width="3mm" x="10050mm" y="10mm" /><rect fill="blue" height="1mm" stroke="red" stroke-width="1" width="1mm" x="10053mm" y="10mm" /><rect fill="blue" height="1mm" stroke="red" stroke-width="1" width="1mm" x="10054mm" y="10mm" /><rect fill="blue" height="1mm" stroke="red" stroke-width="1" width="1mm" x="10055mm" y="10mm" /><rect fill="green" height="1mm" stroke="red" stroke-width="1" width="22mm" x="10056mm" y="10mm" /><rect fill="blue" height="1mm" stroke="red" stroke-width="1" width="2mm" x="10095mm" y="10mm" /><rect fill="blue" height="1mm" stroke="red" stroke-width="1" width="1mm" x="10097mm" y="10mm" /><rect fill="blue" height="1mm" stroke="red" stroke-width="1" width="2mm" x="10098mm" y="10mm" /><rect fill="blue" height="1mm" stroke="red" stroke-width="1" width="0mm" x="10100mm" y="10mm" /><rect fill="green" height="1mm" stroke="red" stroke-width="1" width="22mm" x="10100mm" y="10mm" /><rect fill="blue" height="1mm" stroke="red" stroke-width="1" width="3mm" x="10139mm" y="10mm" /><rect fill="blue" height="1mm" stroke="red" stroke-width="1" width="1mm" x="10142mm" y="10mm" /><rect fill="blue" height="1mm" stroke="red" stroke-width="1" width="1mm" x="10143mm" y="10mm" /><rect fill="blue" height="1mm" stroke="red" stroke-width="1" width="1mm" x="10144mm" y="10mm" /><rect fill="green" height="1mm" stroke="red" stroke-width="1" width="22mm" x="10145mm" y="10mm" /><rect fill="blue" height="1mm" stroke="red" stroke-width="1" width="2mm" x="10184mm" y="10mm" /><rect fill="blue" height="1mm" stroke="red" stroke-width="1" width="1mm" x="10186mm" y="10mm" /><rect fill="blue" height="1mm" stroke="red" stroke-width="1" width="1mm" x="10187mm" y="10mm" /><rect fill="blue" height="1mm" stroke="red" stroke-width="1" width="1mm" x="10188mm" y="10mm" /><rect fill="green" height="1mm" stroke="red" stroke-width="1" width="22mm" x="10189mm" y="10mm" /><rect fill="blue" height="1mm" stroke="red" stroke-width="1" width="3mm" x="10227mm" y="10mm" /><rect fill="blue" height="1mm" stroke="red" stroke-width="1" width="1mm" x="10230mm" y="10mm" /><rect fill="blue" height="1mm" stroke="red" stroke-width="1" width="2mm" x="10231mm" y="10mm" /><rect fill="blue" height="1mm" stroke="red" stroke-width="1" width="0mm" x="10233mm" y="10mm" /><rect fill="green" height="1mm" stroke="red" stroke-width="1" width="27mm" x="10233mm" y="10mm" /><rect fill="blue" height="1mm" stroke="red" stroke-width="1" width="3mm" x="10277mm" y="10mm" /><rect fill="blue" height="1mm" stroke="red" stroke-width="1" width="1mm" x="10280mm" y="10mm" /><rect fill="blue" height="1mm" stroke="red" stroke-width="1" width="2mm" x="10281mm" y="10mm" /><rect fill="blue" height="1mm" stroke="red" stroke-width="1" width="0mm" x="10283mm" y="10mm" /><rect fill="green" height="1mm" stroke="red" stroke-width="1" width="28mm" x="10283mm" y="10mm" /></g></svg>